<svg width="47" height="48" viewBox="0 0 47 48" fill="none" xmlns="http://www.w3.org/2000/svg">
<path d="M12.2364 44.8375H6.53373C4.44907 44.8375 2.75911 43.1138 2.75911 40.9875V35.2606C2.75911 34.4835 2.14143 33.8535 1.37956 33.8535C0.617687 33.8535 0 34.4835 0 35.2606V40.9875C0 44.6682 2.92533 47.652 6.53397 47.652H12.2366C12.9985 47.652 13.6162 47.0219 13.6162 46.2449C13.6162 45.4678 12.9985 44.8378 12.2366 44.8378L12.2364 44.8375Z" fill="white"/>
<path d="M12.2366 0.291016H6.53397C2.92533 0.291016 0 3.27477 0 6.95548V12.6824C0 13.4594 0.617687 14.0895 1.37956 14.0895C2.14143 14.0895 2.75911 13.4594 2.75911 12.6824V6.95475C2.75911 4.82869 4.44883 3.10523 6.53325 3.10523H12.2364C12.9983 3.10523 13.6159 2.47521 13.6159 1.69812C13.6159 0.921038 12.9983 0.291016 12.2364 0.291016L12.2366 0.291016Z" fill="white"/>
<path d="M45.2291 33.8538C44.4672 33.8538 43.8495 34.4838 43.8495 35.2609V40.9877C43.8495 43.114 42.1595 44.8378 40.0749 44.8378H34.3722C33.6104 44.8378 32.9927 45.4678 32.9927 46.2449C32.9927 47.0219 33.6104 47.652 34.3722 47.652H40.0749C43.678 47.652 46.6089 44.6619 46.6089 40.9875V35.2606C46.6089 34.4835 45.9912 33.8535 45.2293 33.8535L45.2291 33.8538Z" fill="white"/>
<path d="M40.0744 0.291016H34.3717C33.6099 0.291016 32.9922 0.921038 32.9922 1.69812C32.9922 2.47521 33.6099 3.10523 34.3717 3.10523H40.0744C42.1591 3.10523 43.849 4.82894 43.849 6.95523V12.6821C43.849 13.4592 44.4667 14.0892 45.2286 14.0892C45.9904 14.0892 46.6081 13.4592 46.6081 12.6821V6.9545C46.6086 3.28063 43.6775 0.291016 40.0744 0.291016Z" fill="white"/>
<path d="M20.1292 28.1404C20.0028 27.5068 20.3192 26.8736 20.8887 26.589C21.0087 26.5291 21.1201 26.4636 21.2226 26.393C21.6738 26.0818 21.9432 25.5505 21.9432 24.972V17.0341C21.9432 16.257 22.5609 15.627 23.3228 15.627H23.3233C24.0852 15.627 24.7028 16.257 24.7028 17.0341V24.972C24.7028 26.4861 23.9798 27.8888 22.7688 28.7243C22.5526 28.8736 22.3214 29.0086 22.0762 29.1296C21.2683 29.5278 20.3089 29.0372 20.1297 28.1404H20.1292Z" fill="white"/>
<path d="M12.9482 15.627H12.9479C12.186 15.627 11.5684 16.2569 11.5684 17.0341V20.7057C11.5684 21.4829 12.186 22.1128 12.9479 22.1128H12.9482C13.7101 22.1128 14.3277 21.4829 14.3277 20.7057V17.0341C14.3277 16.2569 13.7101 15.627 12.9482 15.627Z" fill="white"/>
<path d="M33.6606 15.627H33.6603C32.8984 15.627 32.2808 16.2569 32.2808 17.0341V20.7057C32.2808 21.4829 32.8984 22.1128 33.6603 22.1128H33.6606C34.4225 22.1128 35.0401 21.4829 35.0401 20.7057V17.0341C35.0401 16.2569 34.4225 15.627 33.6606 15.627Z" fill="white"/>
<path d="M23.3044 37.196C20.8176 37.196 18.3296 36.2951 15.8919 34.5149C15.2402 34.039 15.1234 33.0976 15.6371 32.4702C16.0993 31.9059 16.9117 31.7982 17.4966 32.2281C21.4348 35.1239 25.174 35.1239 29.112 32.2281C29.6968 31.7982 30.5092 31.9059 30.9715 32.4702C31.4852 33.0976 31.3684 34.039 30.7167 34.5149C28.279 36.2951 25.791 37.196 23.3042 37.196H23.3044Z" fill="white"/>
</svg>
