<svg width="2329" height="800" viewBox="0 0 2329 800" fill="none" xmlns="http://www.w3.org/2000/svg">
<mask id="mask0_139_260" style="mask-type:alpha" maskUnits="userSpaceOnUse" x="0" y="0" width="2329" height="800">
<path d="M2328.64 186.542V642.11H2202.97V186.542H2328.64Z" fill="#E35951"/>
<path d="M2328.64 13.7417V123.706H2202.97V13.7417H2328.64Z" fill="#E35951"/>
<path d="M887.785 654.028C828.215 654.028 775.794 641.717 730.521 617.095C685.249 592.473 649.904 557.129 624.488 511.062C599.866 464.2 587.555 408.602 587.555 344.267C587.555 279.932 599.866 224.731 624.488 178.664C649.904 131.803 684.851 96.0612 729.33 71.4392C773.808 46.8171 824.244 34.5061 880.636 34.5061C938.617 34.5061 987.861 46.42 1028.37 70.2478C1068.88 94.0756 1099.85 126.64 1121.3 167.942C1142.74 209.243 1153.46 256.104 1153.46 308.526C1153.46 322.822 1153.07 336.325 1152.27 349.033C1151.48 361.741 1150.29 372.861 1148.7 382.392H669.761V284.698H1092.7L1029.56 303.76C1029.56 249.75 1016.06 208.449 989.053 179.856C962.048 150.468 925.115 135.774 878.254 135.774C844.1 135.774 814.316 143.717 788.899 159.602C763.483 175.487 744.024 199.315 730.521 231.085C717.019 262.061 710.268 300.186 710.268 345.459C710.268 389.937 717.416 427.664 731.713 458.641C746.009 489.617 766.263 513.047 792.474 528.933C818.684 544.818 849.66 552.76 885.402 552.76C925.115 552.76 957.282 545.215 981.904 530.124C1006.53 515.033 1025.99 493.985 1040.28 466.98L1141.55 514.636C1127.25 543.229 1107.79 568.248 1083.17 589.693C1059.34 610.344 1030.75 626.229 997.392 637.349C964.034 648.469 927.498 654.028 887.785 654.028Z" fill="#E35951"/>
<path d="M1731.72 170.838H1338.98V45.1636H1731.72V170.838Z" fill="#E35951"/>
<path fill-rule="evenodd" clip-rule="evenodd" d="M433.967 171.071H564.265L377.67 639.901H238.278L0 44.2061H139.393L308.57 507.015L433.967 171.071Z" fill="#E35951"/>
<path d="M1731.72 46.4194V642.114H1610.19V46.4194H1731.72Z" fill="#E35951"/>
<path d="M1338.98 642.11H1213.3V170.832H1338.98V642.11Z" fill="#E35951"/>
<path fill-rule="evenodd" clip-rule="evenodd" d="M1939.86 653.897H2012.52V581.242V508.587V435.931V363.276V290.621H2085.17V217.966V145.31H2012.52V72.6552V0H1939.86H1867.21V72.6552V145.31H1794.55V217.966V290.621H1867.21V363.276V435.931V508.587V581.242V653.897H1939.86Z" fill="#E35951"/>
<path d="M2012.52 799.208H2085.17H2157.83V726.552V653.897H2085.17H2012.52V726.552V799.208Z" fill="#78BFE7"/>
</mask>
<g mask="url(#mask0_139_260)">
<path d="M2147.17 -225.519C2272.13 -171.055 2400.79 -98.9223 2438.38 32.4692C2476.28 164.95 2408.31 297.344 2328.94 409.838C2248.08 524.44 2145.09 628.878 2006.09 645.151C1855.66 662.763 1687.26 619.946 1600.96 495.066C1520.89 379.208 1596.86 231.898 1625.06 93.7832C1651.87 -37.4634 1642.15 -195.149 1756.16 -264.877C1873.84 -336.844 2020.76 -280.611 2147.17 -225.519Z" fill="#DA5C49"/>
<path d="M552.757 -389.023C677.717 -334.559 806.381 -262.427 843.972 -131.035C881.874 1.4458 813.905 133.839 734.532 246.334C653.673 360.936 550.682 465.373 411.683 481.647C261.249 499.258 92.8502 456.442 6.55104 331.561C-73.5135 215.703 2.44949 68.3932 30.6567 -69.7214C57.4613 -200.968 47.7398 -358.653 161.755 -428.381C279.431 -500.349 426.356 -444.116 552.757 -389.023Z" fill="#DA5C49"/>
<path d="M667.564 347.081C759.716 410.942 848.115 494.726 854.419 606.908C860.659 717.957 779.56 807.366 697.641 882.313C615.984 957.02 519.49 1032.17 410.656 1012.9C303.329 993.905 240.855 889.7 190.775 792.592C143.882 701.662 117.007 601.324 148.118 503.819C182.24 396.879 252.282 296.248 359.465 263.906C466.616 231.574 575.5 283.28 667.564 347.081Z" fill="#6DAED1"/>
<path d="M994.392 246.269C1119.35 300.733 1248.02 372.865 1285.61 504.257C1323.51 636.738 1255.54 769.131 1176.17 881.626C1095.31 996.228 992.317 1100.67 853.317 1116.94C702.884 1134.55 534.485 1091.73 448.186 966.853C368.121 850.995 444.084 703.685 472.292 565.571C499.096 434.324 489.375 276.639 603.389 206.911C721.065 134.944 867.991 191.177 994.392 246.269Z" fill="#E7905A"/>
<path d="M1210.96 -420.458C1443.35 -302.314 1586.36 -36.2283 1468.61 196.942C1340.31 451.002 1033.72 560.658 780.514 431.93C544.53 311.958 508.564 6.43215 628.133 -230.346C736.306 -444.556 997.466 -528.994 1210.96 -420.458Z" fill="#E4B7CE"/>
<path d="M2160.66 281.913C2393.05 400.057 2536.07 666.143 2418.32 899.313C2290.02 1153.37 1983.43 1263.03 1730.22 1134.3C1494.24 1014.33 1458.27 708.803 1577.84 472.025C1686.01 257.815 1947.17 173.377 2160.66 281.913Z" fill="#E4B7CE"/>
<path d="M1691.14 122.612C1812.49 206.722 1928.91 317.074 1937.21 464.828C1945.43 611.088 1838.63 728.848 1730.75 827.56C1623.21 925.956 1496.14 1024.93 1352.82 999.559C1211.48 974.537 1129.21 837.289 1063.26 709.389C1001.51 589.627 966.117 457.473 1007.09 329.051C1052.02 188.201 1144.26 55.6602 1285.41 13.0635C1426.51 -29.5209 1569.9 38.5814 1691.14 122.612Z" fill="#6DAED1"/>
<path d="M1749.2 -393.988C1874.16 -339.524 2002.82 -267.392 2040.41 -136C2078.31 -3.51904 2010.34 128.874 1930.97 241.369C1850.11 355.971 1747.12 460.408 1608.12 476.682C1457.69 494.294 1289.29 451.477 1202.99 326.596C1122.93 210.738 1198.89 63.4284 1227.1 -74.6862C1253.9 -205.933 1244.18 -363.618 1358.19 -433.346C1475.87 -505.313 1622.8 -449.08 1749.2 -393.988Z" fill="#E7905A"/>
</g>
</svg>
