<svg width="53" height="58" viewBox="0 0 53 58" fill="none" xmlns="http://www.w3.org/2000/svg">
<mask id="mask0_323_1315" style="mask-type:alpha" maskUnits="userSpaceOnUse" x="0" y="0" width="53" height="58">
<path fill-rule="evenodd" clip-rule="evenodd" d="M26.2706 31.9C33.2644 31.9 39.6248 33.9126 44.3039 36.7488C46.639 38.164 48.6356 39.8344 50.0776 41.6498C51.4962 43.4333 52.5412 45.5677 52.5412 47.85C52.5412 50.3005 51.3415 52.2319 49.6135 53.6094C47.9788 54.9144 45.8217 55.7786 43.5304 56.3818C38.9243 57.5911 32.7769 58 26.2706 58C19.7642 58 13.6169 57.594 9.01081 56.3818C6.71943 55.7786 4.56232 54.9144 2.92771 53.6094C1.19677 52.229 0 50.3005 0 47.85C0 45.5677 1.04499 43.4333 2.4636 41.6469C3.90556 39.8344 5.89921 38.1669 8.23729 36.7459C12.9164 33.9155 19.2797 31.9 26.2706 31.9ZM26.2706 37.7C20.3655 37.7 15.053 39.411 11.2788 41.6991C9.39028 42.8417 7.96583 44.0829 7.04636 45.2429C6.10061 46.4319 5.83791 47.3309 5.83791 47.85C5.83791 48.2038 5.94591 48.5779 6.58224 49.0854C7.30906 49.6654 8.57297 50.2657 10.5053 50.7732C14.3525 51.7882 19.881 52.2 26.2706 52.2C32.6631 52.2 38.1887 51.7853 42.0329 50.7732C43.9682 50.2657 45.2321 49.6654 45.9589 49.0854C46.5953 48.5779 46.7033 48.2038 46.7033 47.85C46.7033 47.328 46.4406 46.4319 45.4977 45.2429C44.5753 44.0829 43.1509 42.8417 41.2623 41.6991C37.4881 39.4081 32.1756 37.7 26.2706 37.7ZM26.2706 0C30.1414 0 33.8536 1.52767 36.5906 4.24695C39.3277 6.96623 40.8654 10.6544 40.8654 14.5C40.8654 18.3456 39.3277 22.0338 36.5906 24.753C33.8536 27.4723 30.1414 29 26.2706 29C22.3998 29 18.6876 27.4723 15.9505 24.753C13.2135 22.0338 11.6758 18.3456 11.6758 14.5C11.6758 10.6544 13.2135 6.96623 15.9505 4.24695C18.6876 1.52767 22.3998 0 26.2706 0ZM26.2706 5.8C25.1206 5.8 23.9819 6.02503 22.9195 6.46225C21.857 6.89946 20.8917 7.5403 20.0785 8.34817C19.2654 9.15604 18.6204 10.1151 18.1803 11.1707C17.7402 12.2262 17.5137 13.3575 17.5137 14.5C17.5137 15.6425 17.7402 16.7738 18.1803 17.8293C18.6204 18.8849 19.2654 19.844 20.0785 20.6518C20.8917 21.4597 21.857 22.1005 22.9195 22.5378C23.9819 22.975 25.1206 23.2 26.2706 23.2C28.5931 23.2 30.8204 22.2834 32.4626 20.6518C34.1049 19.0203 35.0275 16.8074 35.0275 14.5C35.0275 12.1926 34.1049 9.97974 32.4626 8.34817C30.8204 6.71661 28.5931 5.8 26.2706 5.8Z" fill="black"/>
</mask>
<g mask="url(#mask0_323_1315)">
<rect x="-24.5649" y="-21.8359" width="101.671" height="101.671" fill="url(#paint0_linear_323_1315)"/>
</g>
<defs>
<linearGradient id="paint0_linear_323_1315" x1="26.6115" y1="3.41112" x2="26.2704" y2="79.8346" gradientUnits="userSpaceOnUse">
<stop stop-color="#ECCDFF"/>
<stop offset="1" stop-color="#7FACFE"/>
</linearGradient>
</defs>
</svg>
